<svg xmlns="http://www.w3.org/2000/svg" xmlns:xlink="http://www.w3.org/1999/xlink" width="500" zoomAndPan="magnify" viewBox="0 0 375 374.999991" height="500" preserveAspectRatio="xMidYMid meet" version="1.0"><defs><clipPath id="c835192599"><path d="M 37.910156 37.5 L 337.160156 37.5 L 337.160156 336.75 L 37.910156 336.75 Z M 37.910156 37.5 " clip-rule="nonzero"/></clipPath></defs><g clip-path="url(#c835192599)"><path fill="#071e37" d="M 187.496094 336.667969 C 105.015625 336.667969 37.910156 269.5625 37.910156 187.082031 C 37.910156 104.605469 105.015625 37.5 187.496094 37.5 C 269.976562 37.5 337.078125 104.605469 337.078125 187.082031 C 337.078125 269.5625 269.976562 336.667969 187.496094 336.667969 Z M 187.496094 336.667969 " fill-opacity="1" fill-rule="nonzero"/></g><path fill="#d1cecc" d="M 146.007812 226.769531 C 143.789062 226.769531 141.554688 226.066406 139.660156 224.613281 L 101.980469 195.777344 C 99.429688 193.824219 97.917969 190.804688 97.878906 187.59375 C 97.84375 184.378906 99.28125 181.328125 101.789062 179.316406 L 138.691406 149.703125 C 143.199219 146.082031 149.78125 146.808594 153.394531 151.3125 C 157.007812 155.816406 156.289062 162.402344 151.785156 166.015625 L 125.289062 187.277344 L 152.371094 208.007812 C 156.960938 211.515625 157.832031 218.082031 154.320312 222.667969 C 152.261719 225.359375 149.152344 226.769531 146.007812 226.769531 Z M 146.007812 226.769531 " fill-opacity="1" fill-rule="nonzero"/><path fill="#d1cecc" d="M 228.984375 226.769531 C 225.839844 226.769531 222.730469 225.359375 220.671875 222.667969 C 217.15625 218.082031 218.03125 211.515625 222.617188 208.007812 L 249.699219 187.277344 L 223.207031 166.015625 C 218.703125 162.398438 217.980469 155.816406 221.59375 151.3125 C 225.214844 146.808594 231.796875 146.085938 236.296875 149.703125 L 273.199219 179.316406 C 275.707031 181.328125 277.148438 184.378906 277.109375 187.59375 C 277.074219 190.808594 275.558594 193.824219 273.007812 195.777344 L 235.332031 224.613281 C 233.433594 226.066406 231.199219 226.769531 228.984375 226.769531 Z M 228.984375 226.769531 " fill-opacity="1" fill-rule="nonzero"/><path fill="#d1cecc" d="M 170.492188 246.792969 C 169.585938 246.792969 168.664062 246.671875 167.746094 246.425781 C 162.171875 244.914062 158.878906 239.167969 160.386719 233.59375 L 187.089844 135.097656 C 188.601562 129.523438 194.34375 126.230469 199.921875 127.742188 C 205.496094 129.25 208.792969 134.996094 207.28125 140.574219 L 180.578125 239.066406 C 179.316406 243.722656 175.09375 246.789062 170.492188 246.789062 Z M 170.492188 246.792969 " fill-opacity="1" fill-rule="nonzero"/></svg>