<svg xmlns="http://www.w3.org/2000/svg" xmlns:xlink="http://www.w3.org/1999/xlink" width="500" zoomAndPan="magnify" viewBox="0 0 375 374.999991" height="500" preserveAspectRatio="xMidYMid meet" version="1.0"><defs><clipPath id="05881a2357"><path d="M 145 21.242188 L 263 21.242188 L 263 214 L 145 214 Z M 145 21.242188 " clip-rule="nonzero"/></clipPath></defs><path fill="#071e37" d="M 145.515625 275.925781 C 145.515625 275.925781 132.855469 283.625 154.316406 285.828125 C 180.15625 289.121094 193.921875 288.578125 222.519531 283.078125 C 228.28125 286.609375 234.328125 289.542969 240.667969 291.882812 C 176.328125 319.386719 94.898438 290.234375 145.507812 275.925781 Z M 137.28125 240.171875 C 137.28125 240.171875 123.527344 250.621094 144.980469 252.835938 C 173.035156 255.582031 195.03125 256.128906 232.996094 248.4375 C 236.742188 252.234375 241.140625 254.984375 246.195312 256.683594 C 168.636719 279.785156 81.734375 258.886719 137.28125 240.183594 Z M 289.09375 302.867188 C 289.09375 302.867188 298.4375 310.566406 278.644531 316.617188 C 241.789062 327.632812 124.082031 330.925781 91.078125 316.617188 C 79.53125 311.675781 101.527344 304.523438 108.582031 303.421875 C 115.734375 301.773438 119.59375 301.773438 119.59375 301.773438 C 106.933594 292.972656 35.4375 319.921875 83.296875 327.613281 C 214.757812 349.066406 323.113281 318.265625 289.007812 302.867188 Z M 151.464844 202.761719 C 151.464844 202.761719 91.511719 217.070312 130.011719 222.011719 C 146.515625 224.214844 178.960938 223.660156 209.21875 221.46875 C 233.964844 219.265625 258.734375 214.878906 258.734375 214.878906 C 258.734375 214.878906 249.933594 218.730469 243.878906 222.578125 C 182.832031 238.535156 65.664062 231.382812 99.222656 214.878906 C 127.820312 201.125 151.476562 202.785156 151.476562 202.785156 Z M 258.734375 262.71875 C 320.335938 230.804688 291.738281 200.023438 271.929688 203.863281 C 266.988281 204.964844 264.777344 206.066406 264.777344 206.066406 C 264.777344 206.066406 266.421875 202.773438 270.273438 201.671875 C 309.332031 187.917969 340.132812 242.921875 257.613281 264.363281 C 257.613281 264.363281 258.15625 263.820312 258.714844 262.71875 Z M 157.539062 349.621094 C 216.9375 353.472656 307.703125 347.417969 309.898438 319.355469 C 309.898438 319.355469 305.5 330.371094 260.945312 338.605469 C 210.339844 347.953125 147.636719 346.84375 110.785156 340.808594 C 110.785156 340.808594 118.484375 347.398438 157.539062 349.613281 Z M 157.539062 349.621094 " fill-opacity="1" fill-rule="nonzero"/><g clip-path="url(#05881a2357)"><path fill="#071e37" d="M 221.425781 21.253906 C 221.425781 21.253906 255.53125 55.902344 188.980469 108.15625 C 135.625 150.507812 176.882812 174.710938 188.980469 202.21875 C 157.621094 174.164062 135.078125 149.40625 150.476562 126.316406 C 173.023438 92.203125 235.179688 75.800781 221.425781 21.253906 Z M 203.925781 179.117188 C 219.882812 197.265625 199.53125 213.769531 199.53125 213.769531 C 199.53125 213.769531 240.234375 192.871094 221.53125 167.011719 C 204.484375 142.261719 191.265625 130.15625 262.78125 88.90625 C 262.78125 88.90625 150.023438 116.960938 203.925781 179.117188 Z M 203.925781 179.117188 " fill-opacity="1" fill-rule="nonzero"/></g></svg>