<svg xmlns="http://www.w3.org/2000/svg" xmlns:xlink="http://www.w3.org/1999/xlink" width="500" zoomAndPan="magnify" viewBox="0 0 375 374.999991" height="500" preserveAspectRatio="xMidYMid meet" version="1.0"><defs><filter x="0%" y="0%" width="100%" height="100%" id="4e4865f917"><feColorMatrix values="0 0 0 0 1 0 0 0 0 1 0 0 0 0 1 0 0 0 1 0" color-interpolation-filters="sRGB"/></filter><mask id="eaf82e0a7d"><g filter="url(#4e4865f917)"><rect x="-37.5" width="450" fill="#000000" y="-37.499999" height="449.999989" fill-opacity="0.3"/></g></mask><clipPath id="6fd0b81ea2"><path d="M 8.496094 5 L 316 5 L 316 322.128906 L 8.496094 322.128906 Z M 8.496094 5 " clip-rule="nonzero"/></clipPath><clipPath id="7a4372037f"><rect x="0" width="324" y="0" height="324"/></clipPath></defs><g mask="url(#eaf82e0a7d)"><g transform="matrix(1, 0, 0, 1, 25, 24)"><g clip-path="url(#7a4372037f)"><g clip-path="url(#6fd0b81ea2)"><path fill="#071e37" d="M 8.652344 223.925781 C 8.652344 219.089844 9.324219 215.011719 10.664062 211.710938 C 11.976562 208.515625 13.933594 205.785156 16.535156 203.519531 C 19.101562 201.410156 21.992188 199.914062 25.199219 199.039062 C 28.5 198.113281 32.046875 197.648438 35.871094 197.648438 C 39.339844 197.628906 42.738281 198.089844 46.074219 199.039062 C 49.367188 199.964844 52.257812 201.457031 54.734375 203.519531 C 57.214844 205.585938 59.167969 208.316406 60.605469 211.710938 C 62.046875 215.011719 62.773438 219.082031 62.773438 223.925781 C 62.773438 228.558594 62.046875 232.527344 60.605469 235.828125 C 59.265625 239 57.308594 241.730469 54.734375 244.015625 C 52.269531 246.183594 49.378906 247.722656 46.074219 248.648438 C 42.753906 249.699219 39.355469 250.214844 35.871094 250.191406 C 32.046875 250.191406 28.5 249.6875 25.199219 248.648438 C 21.957031 247.765625 19.070312 246.222656 16.535156 244.015625 C 14.058594 241.851562 12.105469 239.121094 10.664062 235.828125 C 9.324219 232.535156 8.652344 228.578125 8.652344 223.925781 M 95.824219 322.078125 C 90.789062 322.078125 85.773438 321.714844 80.519531 321 C 75.261719 320.285156 70.878906 319.347656 67.386719 318.21875 L 67.386719 281.128906 C 70.578125 282.15625 73.570312 282.882812 76.449219 283.292969 C 79.566406 283.832031 82.710938 284.09375 85.875 284.070312 C 88.453125 284.070312 90.871094 283.667969 93.125 282.832031 C 94.332031 282.480469 95.449219 281.945312 96.484375 281.234375 C 97.515625 280.519531 98.414062 279.664062 99.167969 278.660156 C 100.921875 276.707031 102.3125 274.027344 103.339844 270.625 C 104.367188 267.332031 104.878906 263.050781 104.878906 257.792969 L 104.878906 73.242188 L 152.011719 73.242188 L 152.011719 264.742188 C 152.011719 272.679688 150.984375 280.089844 148.921875 286.898438 C 148.027344 290.257812 146.753906 293.46875 145.109375 296.53125 C 143.464844 299.59375 141.488281 302.425781 139.183594 305.027344 C 134.75 310.285156 128.980469 314.394531 121.859375 317.394531 C 114.738281 320.394531 106.097656 321.875 95.894531 321.875 M 102.945312 28.367188 C 102.945312 23.933594 103.621094 20.277344 104.960938 17.289062 C 106.300781 14.296875 108.101562 11.929688 110.367188 10.175781 C 112.734375 8.324219 115.464844 7.035156 118.554688 6.308594 C 121.75 5.585938 125.101562 5.230469 128.605469 5.230469 C 131.945312 5.210938 135.242188 5.570312 138.496094 6.308594 C 141.476562 6.972656 144.15625 8.261719 146.535156 10.175781 C 149.019531 12.054688 150.871094 14.421875 152.09375 17.289062 C 153.53125 20.179688 154.257812 23.832031 154.257812 28.367188 C 154.257812 32.695312 153.53125 36.351562 152.09375 39.445312 C 150.753906 42.433594 148.898438 44.851562 146.535156 46.695312 C 144.117188 48.527344 141.4375 49.820312 138.496094 50.5625 C 135.242188 51.308594 131.945312 51.667969 128.605469 51.648438 C 125.101562 51.648438 121.757812 51.296875 118.554688 50.5625 C 115.578125 49.796875 112.851562 48.507812 110.367188 46.695312 C 108.101562 44.84375 106.300781 42.414062 104.960938 39.445312 C 103.621094 36.472656 102.945312 32.796875 102.945312 28.367188 M 315.648438 194.71875 C 315.648438 203.785156 313.996094 211.71875 310.609375 218.515625 C 308.996094 221.882812 306.996094 225.003906 304.617188 227.878906 C 302.238281 230.753906 299.546875 233.300781 296.542969 235.515625 C 290.460938 240.050781 283.097656 243.453125 274.4375 245.71875 C 265.773438 247.984375 256.105469 249.125 245.382812 249.125 C 239.710938 249.125 234.453125 248.921875 229.621094 248.519531 C 225 248.234375 220.414062 247.667969 215.863281 246.816406 C 211.53125 245.992188 207.363281 244.964844 203.34375 243.726562 C 199.179688 242.433594 195.113281 240.890625 191.136719 239.09375 L 191.136719 200.15625 C 195.46875 202.324219 200 204.1875 204.734375 206.027344 L 219.105469 210.660156 L 232.863281 213.601562 C 237.007812 214.292969 241.179688 214.652344 245.382812 214.679688 C 249.609375 214.679688 253.214844 214.328125 256.199219 213.601562 C 259.1875 212.777344 261.605469 211.589844 263.449219 210.359375 C 265.402344 208.917969 266.800781 207.269531 267.617188 205.324219 C 268.550781 203.367188 269.011719 201.308594 269.007812 199.140625 C 269.007812 196.976562 268.644531 195.070312 267.929688 193.421875 C 267.324219 191.667969 265.914062 189.863281 263.449219 188.011719 C 261.082031 186.058594 257.578125 183.984375 252.933594 181.527344 L 234.542969 172.460938 L 214.90625 162.410156 C 209.449219 159.007812 204.914062 155.363281 201.308594 151.132812 C 197.765625 146.957031 195.136719 142.265625 193.425781 137.0625 C 191.671875 131.703125 190.804688 125.378906 190.804688 118.046875 C 190.804688 110.011719 192.347656 103.003906 195.4375 97.03125 C 196.972656 94.003906 198.851562 91.210938 201.070312 88.648438 C 203.292969 86.085938 205.792969 83.828125 208.570312 81.882812 C 214.242188 77.855469 221.039062 74.875 228.976562 72.820312 C 237.011719 70.753906 245.925781 69.726562 255.714844 69.726562 C 266.015625 69.726562 275.804688 70.914062 285.082031 73.28125 C 294.355469 75.648438 303.882812 79.203125 313.683594 83.957031 L 299.460938 117.34375 C 291.628906 113.636719 284.15625 110.597656 277.054688 108.230469 C 270.136719 105.882812 263.027344 104.699219 255.722656 104.675781 C 249.339844 104.675781 244.695312 105.8125 241.824219 108.078125 C 239.046875 110.34375 237.65625 113.4375 237.65625 117.34375 C 237.65625 119.40625 238.019531 121.371094 238.734375 122.914062 C 239.460938 124.464844 240.898438 126.105469 243.066406 127.949219 C 245.230469 129.601562 248.269531 131.453125 252.179688 133.507812 L 267.488281 140.757812 L 287.265625 150.324219 C 292.808594 153.179688 297.859375 156.734375 302.414062 160.992188 C 306.644531 165 309.890625 169.6875 312.152344 175.0625 C 314.417969 180.417969 315.554688 186.914062 315.554688 194.539062 " fill-opacity="1" fill-rule="nonzero"/></g></g></g></g></svg>