<svg xmlns="http://www.w3.org/2000/svg" xmlns:xlink="http://www.w3.org/1999/xlink" width="500" zoomAndPan="magnify" viewBox="0 0 375 374.999991" height="500" preserveAspectRatio="xMidYMid meet" version="1.0"><defs><filter x="0%" y="0%" width="100%" height="100%" id="336689465b"><feColorMatrix values="0 0 0 0 1 0 0 0 0 1 0 0 0 0 1 0 0 0 1 0" color-interpolation-filters="sRGB"/></filter><mask id="1e8ddf1de8"><g filter="url(#336689465b)"><rect x="-37.5" width="450" fill="#000000" y="-37.499999" height="449.999989" fill-opacity="0.3"/></g></mask><clipPath id="563b6d9ec4"><path d="M 81 0.378906 L 188 0.378906 L 188 176 L 81 176 Z M 81 0.378906 " clip-rule="nonzero"/></clipPath><clipPath id="ad795f9c1e"><rect x="0" width="235" y="0" height="310"/></clipPath></defs><g mask="url(#1e8ddf1de8)"><g transform="matrix(1, 0, 0, 1, 68, 36)"><g clip-path="url(#ad795f9c1e)"><path fill="#071e37" d="M 81.335938 231.878906 C 81.335938 231.878906 69.828125 238.875 89.335938 240.878906 C 112.824219 243.875 125.335938 243.378906 151.328125 238.382812 C 156.566406 241.589844 162.066406 244.253906 167.824219 246.382812 C 109.34375 271.382812 35.328125 244.882812 81.328125 231.878906 Z M 73.851562 199.378906 C 73.851562 199.378906 61.351562 208.878906 80.851562 210.890625 C 106.347656 213.386719 126.34375 213.882812 160.855469 206.894531 C 164.257812 210.34375 168.257812 212.84375 172.851562 214.390625 C 102.351562 235.386719 23.359375 216.390625 73.851562 199.390625 Z M 211.84375 256.367188 C 211.84375 256.367188 220.339844 263.363281 202.34375 268.867188 C 168.84375 278.878906 61.855469 281.875 31.855469 268.867188 C 21.355469 264.375 41.351562 257.871094 47.761719 256.871094 C 54.265625 255.375 57.773438 255.375 57.773438 255.375 C 46.265625 247.375 -18.71875 271.871094 24.78125 278.859375 C 144.273438 298.359375 242.765625 270.363281 211.765625 256.367188 Z M 86.746094 165.375 C 86.746094 165.375 32.25 178.382812 67.246094 182.875 C 82.246094 184.875 111.738281 184.371094 139.238281 182.378906 C 161.734375 180.375 184.246094 176.390625 184.246094 176.390625 C 184.246094 176.390625 176.246094 179.890625 170.746094 183.386719 C 115.257812 197.890625 8.753906 191.390625 39.257812 176.390625 C 65.25 163.886719 86.753906 165.394531 86.753906 165.394531 Z M 184.246094 219.871094 C 240.242188 190.863281 214.246094 162.886719 196.242188 166.378906 C 191.75 167.378906 189.738281 168.378906 189.738281 168.378906 C 189.738281 168.378906 191.238281 165.386719 194.738281 164.382812 C 230.238281 151.882812 258.234375 201.878906 183.226562 221.371094 C 183.226562 221.371094 183.722656 220.875 184.230469 219.871094 Z M 92.265625 298.867188 C 146.257812 302.367188 228.757812 296.863281 230.753906 271.355469 C 230.753906 271.355469 226.757812 281.367188 186.257812 288.855469 C 140.257812 297.351562 83.265625 296.339844 49.765625 290.855469 C 49.765625 290.855469 56.765625 296.84375 92.265625 298.855469 Z M 92.265625 298.867188 " fill-opacity="1" fill-rule="nonzero"/><g clip-path="url(#563b6d9ec4)"><path fill="#071e37" d="M 150.335938 0.390625 C 150.335938 0.390625 181.335938 31.886719 120.84375 79.382812 C 72.34375 117.878906 109.847656 139.878906 120.84375 164.878906 C 92.339844 139.382812 71.847656 116.878906 85.847656 95.890625 C 106.339844 64.878906 162.839844 49.972656 150.335938 0.390625 Z M 134.429688 143.882812 C 148.933594 160.378906 130.433594 175.378906 130.433594 175.378906 C 130.433594 175.378906 167.433594 156.382812 150.429688 132.878906 C 134.933594 110.382812 122.921875 99.378906 187.925781 61.886719 C 187.925781 61.886719 85.433594 87.382812 134.429688 143.882812 Z M 134.429688 143.882812 " fill-opacity="1" fill-rule="nonzero"/></g></g></g></g></svg>