<svg xmlns="http://www.w3.org/2000/svg" xmlns:xlink="http://www.w3.org/1999/xlink" width="500" zoomAndPan="magnify" viewBox="0 0 375 374.999991" height="500" preserveAspectRatio="xMidYMid meet" version="1.0"><defs><filter x="0%" y="0%" width="100%" height="100%" id="f009f650c7"><feColorMatrix values="0 0 0 0 1 0 0 0 0 1 0 0 0 0 1 0 0 0 1 0" color-interpolation-filters="sRGB"/></filter><mask id="cb7789fe11"><g filter="url(#f009f650c7)"><rect x="-37.5" width="450" fill="#000000" y="-37.499999" height="449.999989" fill-opacity="0.3"/></g></mask><clipPath id="4a98c96178"><path d="M 2.457031 0.0390625 L 339 0.0390625 L 339 175 L 2.457031 175 Z M 2.457031 0.0390625 " clip-rule="nonzero"/></clipPath><clipPath id="5458cbab68"><rect x="0" width="340" y="0" height="177"/></clipPath></defs><g mask="url(#cb7789fe11)"><g transform="matrix(1, 0, 0, 1, 16, 101)"><g clip-path="url(#5458cbab68)"><g clip-path="url(#4a98c96178)"><path fill="#071e37" d="M 1.835938 159.390625 L 12.941406 159.390625 L 12.941406 115.398438 L 30.28125 153.753906 C 32.246094 158.363281 35.066406 160.070312 40.53125 160.070312 C 45.996094 160.070312 48.648438 158.363281 50.679688 153.753906 L 67.933594 115.398438 L 67.933594 159.390625 L 79.125 159.390625 L 79.125 115.398438 C 79.125 111.128906 77.414062 109.074219 73.828125 107.964844 C 65.371094 105.402344 59.734375 107.625 57.171875 113.34375 L 40.175781 151.273438 L 23.773438 113.34375 C 21.292969 107.625 15.570312 105.402344 7.03125 107.964844 C 3.527344 109.074219 1.816406 111.128906 1.816406 115.398438 L 1.816406 159.390625 Z M 88.367188 123.601562 L 99.558594 123.601562 L 99.558594 147.773438 C 99.472656 149.140625 99.984375 152.214844 106.066406 152.296875 C 109.226562 152.382812 130.15625 152.296875 130.324219 152.296875 L 130.324219 123.425781 L 141.515625 123.425781 L 141.515625 162.976562 C 141.515625 172.714844 129.453125 174.847656 123.832031 174.9375 L 88.644531 174.9375 L 88.644531 167.507812 L 123.921875 167.507812 C 131.097656 166.738281 130.246094 163.152344 130.246094 161.957031 L 130.246094 159.050781 L 106.582031 159.050781 C 95.5625 158.960938 88.46875 154.09375 88.386719 148.542969 L 88.386719 123.597656 Z M 328.390625 95.582031 C 321.5625 95.410156 316.261719 96.09375 311.820312 97.972656 C 310.542969 98.492188 308.488281 98.492188 308.320312 100.109375 C 309.003906 100.789062 309.085938 101.902344 309.683594 102.84375 C 310.710938 104.554688 312.503906 106.855469 314.128906 108.050781 C 315.921875 109.421875 317.714844 110.785156 319.59375 111.980469 C 322.925781 114.03125 326.683594 115.226562 329.925781 117.277344 C 331.808594 118.472656 333.6875 120.011719 335.566406 121.292969 C 336.523438 121.976562 337.101562 123.089844 338.300781 123.515625 L 338.300781 123.257812 C 337.703125 122.492188 337.53125 121.378906 336.933594 120.523438 C 336.078125 119.671875 335.226562 118.898438 334.371094 118.046875 C 331.894531 114.714844 328.816406 111.808594 325.484375 109.421875 C 322.753906 107.539062 316.773438 104.980469 315.664062 101.820312 L 315.496094 101.648438 C 317.371094 101.476562 319.59375 100.792969 321.390625 100.277344 C 324.296875 99.511719 326.941406 99.679688 329.925781 98.914062 C 331.296875 98.570312 332.660156 98.144531 334.03125 97.71875 L 334.03125 96.953125 C 332.492188 95.414062 331.382812 93.363281 329.761719 91.914062 C 325.40625 88.152344 320.621094 84.480469 315.664062 81.40625 C 313.015625 79.699219 309.597656 78.585938 306.78125 77.136719 C 305.753906 76.621094 304.046875 76.367188 303.449219 75.511719 C 301.910156 73.636719 301.054688 71.15625 299.945312 68.933594 C 297.46875 64.234375 295.078125 59.027344 292.941406 54.070312 C 291.40625 50.742188 290.464844 47.410156 288.585938 44.335938 C 279.789062 29.8125 270.21875 21.015625 255.527344 12.386719 C 252.367188 10.59375 248.609375 9.820312 244.613281 8.882812 L 238.207031 8.539062 C 236.839844 7.941406 235.472656 6.316406 234.277344 5.546875 C 229.410156 2.472656 216.851562 -4.1875 213.261719 4.609375 C 210.957031 10.164062 216.679688 15.628906 218.621094 18.449219 C 220.078125 20.414062 221.953125 22.632812 222.980469 24.855469 C 223.558594 26.304688 223.75 27.84375 224.347656 29.382812 C 225.710938 33.140625 226.996094 37.328125 228.789062 40.832031 C 229.746094 42.625 230.75 44.507812 231.949219 46.128906 C 232.632812 47.066406 233.828125 47.496094 234.082031 49.03125 C 232.886719 50.742188 232.804688 53.300781 232.121094 55.441406 C 229.042969 65.09375 230.242188 77.050781 234.597656 84.140625 C 235.964844 86.273438 239.191406 90.972656 243.566406 89.179688 C 247.410156 87.640625 246.554688 82.773438 247.664062 78.5 C 247.921875 77.476562 247.75 76.792969 248.261719 76.109375 L 248.261719 76.28125 L 251.765625 83.371094 C 254.414062 87.554688 259.027344 91.914062 262.871094 94.820312 C 264.917969 96.355469 266.542969 99.003906 269.101562 99.945312 L 269.101562 99.683594 L 268.933594 99.683594 C 268.421875 98.917969 267.652344 98.574219 266.96875 97.976562 C 265.429688 96.441406 263.722656 94.558594 262.527344 92.851562 C 258.941406 88.070312 255.78125 82.773438 252.960938 77.304688 C 251.59375 74.660156 250.394531 71.753906 249.289062 69.105469 C 248.773438 68.082031 248.773438 66.542969 247.921875 66.03125 C 246.636719 67.90625 244.761719 69.535156 243.816406 71.839844 C 242.195312 75.511719 242.027344 80.039062 241.429688 84.738281 C 241.085938 84.824219 241.238281 84.738281 241.085938 84.910156 C 238.355469 84.230469 237.414062 81.40625 236.386719 79.019531 C 233.828125 72.953125 233.398438 63.214844 235.617188 56.210938 C 236.214844 54.417969 238.78125 48.777344 237.757812 47.070312 C 237.238281 45.445312 235.535156 44.507812 234.59375 43.226562 C 233.484375 41.601562 232.289062 39.554688 231.519531 37.761719 C 229.472656 32.972656 228.449219 27.679688 226.226562 22.894531 C 225.199219 20.675781 223.40625 18.367188 221.953125 16.320312 C 220.328125 14.011719 218.539062 12.390625 217.257812 9.65625 C 216.828125 8.71875 216.230469 7.179688 216.914062 6.152344 C 217.082031 5.46875 217.429688 5.214844 218.109375 5.042969 C 219.21875 4.105469 222.382812 5.300781 223.492188 5.808594 C 226.652344 7.089844 229.296875 8.285156 231.945312 10.078125 C 233.144531 10.933594 234.425781 12.554688 235.960938 12.984375 L 237.757812 12.984375 C 240.492188 13.582031 243.566406 13.15625 246.125 13.921875 C 250.652344 15.378906 254.753906 17.511719 258.429688 19.820312 C 269.617188 26.910156 278.84375 36.988281 285.078125 49.035156 C 286.101562 51 286.527344 52.792969 287.472656 54.84375 C 289.265625 59.03125 291.488281 63.300781 293.277344 67.402344 C 295.074219 71.417969 296.78125 75.519531 299.34375 78.851562 C 300.625 80.644531 305.75 81.582031 308.054688 82.523438 C 309.765625 83.289062 312.410156 83.980469 313.949219 84.917969 C 316.851562 86.710938 319.757812 88.761719 322.488281 90.726562 C 323.855469 91.746094 328.128906 93.882812 328.382812 95.589844 Z M 241.28125 21.351562 C 240.097656 21.339844 238.929688 21.484375 237.78125 21.777344 L 237.78125 21.949219 L 237.949219 21.949219 C 238.632812 23.316406 239.832031 24.257812 240.683594 25.453125 L 242.648438 29.554688 L 242.820312 29.382812 C 244.015625 28.527344 244.613281 27.160156 244.613281 25.113281 C 244.101562 24.515625 244.015625 23.917969 243.589844 23.320312 C 243.078125 22.464844 241.964844 22.035156 241.28125 21.355469 Z M 241.28125 21.351562 " fill-opacity="1" fill-rule="evenodd"/></g><path fill="#071e37" d="M 150.042969 159.390625 L 182.160156 159.390625 C 185.917969 159.390625 189.507812 158.625 192.410156 157.253906 C 197.28125 155.035156 199.585938 152.046875 199.585938 148.117188 L 199.585938 139.917969 C 199.585938 136.757812 196.9375 133.765625 191.644531 131.71875 C 188.910156 130.691406 185.492188 130.09375 182.164062 130.09375 L 168.664062 130.09375 C 164.136719 130.09375 162.003906 128.726562 161.402344 125.738281 C 161.320312 125.398438 161.320312 125.054688 161.320312 124.714844 L 161.320312 119.671875 C 161.320312 119.414062 161.320312 119.074219 161.402344 118.734375 C 162 116.429688 163.199219 115.828125 167.148438 115.402344 L 200.03125 115.402344 L 200.03125 107.96875 L 168.769531 107.96875 C 164.242188 107.96875 161.847656 108.226562 159.714844 108.910156 C 153.132812 110.960938 150.230469 114.207031 150.230469 119.925781 L 150.230469 126.421875 C 150.230469 131.457031 155.867188 135.734375 165.433594 136.757812 C 166.460938 136.84375 167.570312 136.84375 168.679688 136.84375 L 180.214844 136.84375 C 180.640625 136.84375 181.066406 136.84375 181.40625 136.929688 C 184.910156 137.269531 186.449219 137.867188 187.472656 139.148438 C 188.15625 139.832031 188.328125 140.429688 188.328125 141.199219 L 188.328125 147.691406 C 188.328125 148.457031 187.8125 149.484375 186.789062 150.339844 C 185.765625 151.191406 184.136719 151.789062 182.003906 151.875 C 181.578125 151.875 181.324219 151.960938 180.894531 151.960938 L 150.042969 151.960938 Z M 269.117188 146.492188 C 269.117188 154.09375 274.859375 158.363281 286.289062 159.222656 C 287.398438 159.308594 288.425781 159.390625 289.535156 159.390625 L 318.578125 159.390625 L 318.578125 151.960938 L 289.28125 151.960938 C 282.785156 151.960938 280.308594 150.339844 280.308594 146.410156 L 280.308594 107.96875 L 269.089844 107.96875 L 269.089844 146.496094 Z M 206.675781 146.832031 L 206.675781 120.355469 C 206.675781 113.605469 211.457031 109.503906 220.769531 108.222656 C 221.796875 108.136719 222.820312 108.050781 223.757812 108.050781 L 244.941406 108.050781 C 246.050781 108.050781 246.992188 108.136719 248.101562 108.222656 C 257.414062 109.503906 262.109375 113.605469 262.109375 120.355469 L 262.109375 146.832031 C 262.109375 152.296875 260.148438 155.203125 255.53125 157.171875 L 266.464844 167.078125 L 253.566406 167.078125 L 244.683594 159.050781 L 235.710938 159.5625 L 223.753906 159.5625 C 221.554688 159.550781 219.390625 159.265625 217.261719 158.710938 C 210.179688 156.742188 206.675781 152.984375 206.675781 146.832031 Z M 218.714844 146.238281 C 218.714844 146.578125 218.90625 146.917969 218.976562 147.347656 C 219.574219 150.421875 222.476562 152.132812 226.917969 152.132812 L 237 152.132812 L 227.773438 143.757812 L 240.671875 143.757812 L 248.785156 151.109375 C 250.324219 150.25 251.261719 149.054688 251.605469 147.519531 C 251.691406 147.175781 251.691406 146.753906 251.691406 146.40625 L 251.691406 121.035156 C 251.691406 120.695312 251.691406 120.355469 251.605469 120.011719 C 251.007812 117.109375 248.105469 115.488281 243.746094 115.488281 L 226.917969 115.488281 C 221.964844 115.488281 218.71875 117.621094 218.71875 121.035156 Z M 218.714844 146.238281 " fill-opacity="1" fill-rule="evenodd"/></g></g></g></svg>